<?xml version="1.0" standalone="no"?>
<!DOCTYPE svg PUBLIC "-//W3C//DTD SVG 20010904//EN"
 "http://www.w3.org/TR/2001/REC-SVG-20010904/DTD/svg10.dtd">
<svg version="1.0" xmlns="http://www.w3.org/2000/svg"
 width="559.000000pt" height="897.000000pt" viewBox="0 0 559.000000 897.000000"
 preserveAspectRatio="xMidYMid meet">
<metadata>
Created by potrace 1.16, written by Peter Selinger 2001-2019
</metadata>
<g transform="translate(0.000000,897.000000) scale(0.100000,-0.100000)"
fill="#000000" stroke="none">
<path d="M620 7900 l0 -90 -150 0 c-147 0 -150 0 -155 -22 -3 -13 -4 -1578 -3
-3478 l3 -3455 717 -3 718 -2 30 47 c16 27 30 53 30 58 0 6 49 9 134 7 128 -3
135 -2 146 18 6 11 15 18 21 15 5 -4 9 5 9 19 0 14 3 26 8 26 8 0 32 49 32 67
0 7 5 13 10 13 6 0 10 9 10 20 0 11 3 20 8 20 8 0 32 48 32 66 0 7 4 14 8 16
4 2 26 39 47 83 22 44 43 82 47 83 5 2 8 12 8 23 0 10 5 19 10 19 6 0 10 11
10 25 0 14 5 25 10 25 6 0 10 9 10 21 0 11 5 17 10 14 6 -3 10 3 10 14 0 12 9
30 20 41 11 11 20 29 20 39 0 11 5 23 10 26 9 6 34 55 101 201 11 22 19 50 19
63 0 12 4 19 10 16 6 -4 10 5 10 19 0 14 5 26 10 26 6 0 10 9 10 20 0 11 5 20
10 20 6 0 10 9 10 20 0 11 4 20 9 20 5 0 12 11 15 25 4 14 11 25 16 25 6 0 10
9 10 20 0 11 5 20 10 20 6 0 10 9 10 21 0 11 5 17 10 14 6 -4 10 6 10 22 0 22
2 25 10 13 8 -12 10 -9 10 13 0 15 5 27 10 27 6 0 10 9 10 20 0 11 5 20 10 20
6 0 10 8 10 18 0 37 14 31 36 -16 96 -198 144 -304 144 -317 0 -8 4 -15 8 -15
4 0 21 -28 36 -62 16 -35 49 -105 72 -155 24 -51 44 -97 44 -103 0 -5 4 -10 8
-10 4 0 14 -17 21 -38 7 -20 35 -82 61 -137 26 -55 63 -134 83 -175 19 -41 66
-140 105 -220 38 -80 86 -180 106 -223 l35 -77 43 0 c24 0 95 5 158 10 63 5
223 14 355 21 132 6 364 17 515 26 151 8 330 17 398 19 85 4 122 9 122 17 0 7
-11 33 -25 59 l-24 46 157 7 c86 4 174 7 194 8 21 1 38 6 38 10 0 5 -40 93
-89 195 -48 103 -101 214 -116 247 -23 51 -286 608 -330 700 -154 324 -253
532 -275 580 -15 33 -40 87 -55 120 -15 33 -94 200 -175 370 -81 171 -155 328
-165 350 -10 22 -84 180 -165 350 -81 171 -154 327 -163 347 -10 20 -35 76
-57 123 -43 94 -45 99 -30 90 6 -4 10 5 10 19 0 14 5 26 10 26 6 0 10 9 10 20
0 11 5 20 10 20 6 0 10 9 10 20 0 11 5 20 10 20 6 0 10 9 10 20 0 11 5 20 10
20 6 0 10 9 10 20 0 11 5 20 10 20 6 0 10 12 10 27 0 14 3 23 6 20 8 -7 54 79
54 100 0 7 7 13 15 13 8 0 15 9 15 20 0 11 5 20 10 20 6 0 10 9 10 20 0 11 5
20 10 20 6 0 10 9 10 20 0 11 5 20 10 20 6 0 10 9 10 20 0 11 5 20 10 20 6 0
10 7 10 15 0 14 19 54 30 65 3 3 19 33 35 68 16 34 33 62 37 62 4 0 8 9 8 19
0 11 5 23 10 26 6 3 10 15 10 26 0 10 5 19 10 19 6 0 10 7 10 15 0 8 5 15 10
15 6 0 10 12 10 26 0 14 4 23 10 19 6 -3 10 3 10 14 0 12 5 21 10 21 6 0 10
12 10 26 0 14 4 23 10 19 6 -3 10 0 10 8 0 17 30 80 43 88 5 3 9 10 9 15 0 5
4 19 9 32 5 13 9 28 9 34 0 6 3 8 7 5 10 -10 33 42 33 74 0 16 5 29 10 29 6 0
10 9 10 19 0 11 3 21 8 23 10 4 52 87 52 104 0 8 4 14 10 14 5 0 15 15 23 33
38 87 60 127 69 127 5 0 8 9 8 20 0 11 5 20 10 20 6 0 10 9 10 19 0 11 5 23
10 26 6 3 10 15 10 26 0 11 5 17 10 14 6 -4 10 5 10 19 0 14 5 26 10 26 6 0
10 9 10 21 0 11 5 17 10 14 6 -3 10 3 10 14 0 11 4 22 9 25 12 8 81 147 81
163 0 6 3 13 8 15 10 4 92 171 92 187 0 7 5 9 10 6 6 -3 10 2 10 12 0 11 5 24
12 31 6 6 13 17 14 24 6 35 25 69 36 62 6 -4 8 -3 5 3 -4 6 0 19 8 29 8 10 15
29 15 42 0 12 5 22 10 22 6 0 10 12 10 26 0 14 4 23 10 19 6 -4 10 6 10 24 0
16 3 31 8 33 4 2 21 31 38 65 18 34 34 59 38 56 3 -4 6 3 6 14 0 26 25 75 33
66 4 -3 7 6 7 21 0 16 4 25 10 21 6 -3 10 4 10 17 0 13 9 34 20 48 11 14 20
33 20 43 0 9 3 17 8 17 8 0 32 49 32 67 0 7 5 13 10 13 6 0 10 9 10 20 0 11 4
20 9 20 5 0 13 10 17 23 4 12 9 24 13 27 12 10 31 50 31 65 0 9 5 13 10 10 6
-4 10 5 10 20 0 15 4 24 10 20 6 -4 10 5 10 19 0 14 5 26 10 26 6 0 10 9 10
19 0 11 3 21 8 23 6 3 39 66 56 108 3 8 15 29 26 47 10 17 22 48 26 67 l6 36
-827 0 c-818 0 -827 0 -832 -20 -3 -11 -9 -20 -13 -20 -7 0 -34 -51 -32 -62 1
-3 -5 -12 -13 -18 -8 -7 -15 -20 -15 -30 0 -26 -19 -30 -130 -30 l-99 0 -35
-52 c-19 -29 -56 -93 -81 -143 -60 -116 -115 -218 -147 -275 -43 -75 -129
-240 -171 -325 -22 -44 -77 -157 -123 -250 -46 -94 -84 -176 -84 -183 0 -7 -4
-12 -10 -12 -5 0 -10 -9 -10 -20 0 -11 -4 -20 -10 -20 -5 0 -10 -7 -10 -15 0
-9 -10 -32 -23 -53 -13 -20 -66 -122 -118 -227 -52 -104 -97 -191 -101 -193
-5 -2 -8 -9 -8 -14 0 -19 -103 -218 -112 -218 -5 0 -7 -3 -5 -8 5 -6 -11 -45
-40 -97 -6 -11 -59 -119 -118 -240 -59 -121 -120 -247 -137 -280 -17 -33 -66
-130 -109 -215 l-79 -155 -2 1585 -3 1585 -737 3 -738 2 0 -90z m10 -3515 l5
-3390 564 -5 c363 -3 565 -9 567 -15 2 -5 -7 -28 -19 -50 l-23 -40 -687 -3
-687 -2 0 3450 0 3451 138 -3 137 -3 5 -3390z m3210 3384 c0 -11 -21 -50 -121
-234 -78 -143 -172 -327 -285 -555 -63 -129 -163 -329 -221 -445 -116 -230
-337 -672 -601 -1200 -347 -695 -414 -825 -427 -825 -8 0 -11 -7 -8 -19 2 -10
-14 -55 -39 -102 l-43 -84 -3 201 -2 201 70 149 c39 82 111 228 160 324 49 96
202 402 340 680 138 278 288 577 332 665 208 410 343 674 368 720 15 28 57
109 93 180 112 220 169 321 196 343 19 16 191 17 191 1z m-806 -5091 c24 -51
61 -131 84 -178 88 -186 137 -292 207 -440 40 -85 99 -209 130 -275 32 -66
106 -223 165 -350 59 -126 139 -295 177 -375 l70 -145 49 2 c27 0 74 2 104 3
30 1 161 8 290 16 129 7 294 16 365 19 72 2 184 7 250 11 l120 7 22 -46 c12
-25 19 -48 16 -51 -4 -3 -45 -6 -92 -6 -47 0 -142 -4 -211 -10 -69 -5 -269
-17 -445 -25 -320 -15 -629 -32 -738 -39 -52 -4 -59 -2 -67 17 -4 12 -42 93
-84 179 -41 86 -86 183 -100 215 -22 53 -50 112 -228 483 -33 69 -98 206 -143
305 -46 99 -106 229 -135 289 l-53 110 94 188 c52 103 98 188 102 188 5 0 28
-42 51 -92z"/>
</g>
</svg>
