<?xml version="1.0" standalone="no"?>
<!DOCTYPE svg PUBLIC "-//W3C//DTD SVG 20010904//EN"
 "http://www.w3.org/TR/2001/REC-SVG-20010904/DTD/svg10.dtd">
<svg version="1.0" xmlns="http://www.w3.org/2000/svg"
 width="1138.000000pt" height="1138.000000pt" viewBox="0 0 1138.000000 1138.000000"
 preserveAspectRatio="xMidYMid meet">
<metadata>
Created by potrace 1.16, written by Peter Selinger 2001-2019
</metadata>
<g transform="translate(0.000000,1138.000000) scale(0.100000,-0.100000)"
fill="#000000" stroke="none">
<path d="M2457 9142 c-13 -14 -17 -39 -17 -103 0 -46 -4 -90 -8 -96 -6 -9 -52
-12 -175 -11 -122 1 -171 -2 -180 -11 -19 -19 -18 -8561 2 -8584 12 -16 85
-17 860 -17 465 0 856 3 869 6 15 4 33 26 52 63 15 32 34 62 42 68 8 7 76 13
176 15 157 3 164 4 180 26 20 26 240 463 442 877 72 149 136 277 140 285 20
33 70 137 70 144 0 4 5 12 10 19 6 7 50 90 98 186 48 95 92 173 97 172 6 -1
56 -99 112 -219 134 -284 183 -388 263 -557 37 -77 95 -201 130 -275 35 -74
91 -195 126 -269 35 -73 64 -135 64 -136 0 -2 39 -83 86 -181 47 -99 101 -212
120 -252 l33 -73 208 6 c114 4 215 9 223 12 15 5 361 23 810 42 124 6 248 13
275 16 28 4 132 10 232 14 117 4 187 11 194 18 9 9 5 25 -15 69 -15 31 -26 57
-24 59 2 1 111 8 243 15 132 6 241 13 242 14 0 0 -28 62 -64 136 -36 74 -120
254 -188 400 -67 146 -184 393 -260 550 -75 157 -147 310 -161 341 -13 31
-100 218 -195 415 -94 198 -206 436 -249 529 -43 94 -135 289 -205 435 -70
146 -160 337 -200 425 -40 88 -132 284 -205 435 -73 151 -170 358 -216 460
l-85 184 68 136 c37 74 71 137 76 138 4 2 7 9 7 16 0 7 12 35 26 62 14 27 32
60 39 74 7 14 22 43 34 65 18 35 310 620 564 1135 45 91 85 167 90 168 4 2 7
9 7 15 0 9 40 93 69 147 36 66 77 147 268 530 119 239 257 518 308 620 50 102
96 194 102 205 6 11 19 38 29 60 11 22 21 42 24 45 3 3 13 23 24 45 10 22 27
56 37 75 75 138 389 776 389 789 0 42 15 41 -995 41 -864 0 -973 -2 -993 -16
-12 -8 -41 -50 -64 -92 -67 -122 -64 -120 -208 -121 -67 -1 -126 -4 -131 -7
-19 -11 -88 -131 -224 -389 -31 -60 -72 -137 -90 -170 -18 -33 -51 -95 -74
-137 -23 -43 -375 -745 -784 -1560 l-742 -1483 -5 1971 c-4 1650 -7 1974 -19
1987 -12 16 -87 17 -891 17 -837 0 -878 -1 -893 -18z m1751 -35 c8 -9 12 -689
14 -2280 3 -2103 4 -2267 20 -2283 9 -9 23 -14 31 -11 20 7 91 140 117 217 12
35 38 91 58 124 20 34 60 108 87 166 39 80 1136 2275 1625 3250 43 85 101 198
130 250 29 52 82 151 118 220 71 136 175 315 200 343 14 16 73 17 959 17 745
0 943 -3 943 -12 0 -7 -59 -132 -131 -278 -193 -390 -502 -1011 -558 -1120
-27 -52 -78 -153 -114 -225 -36 -71 -75 -148 -86 -170 -11 -22 -120 -240 -241
-485 -120 -245 -263 -531 -317 -636 -54 -106 -127 -252 -162 -325 -35 -74 -67
-136 -71 -139 -5 -3 -67 -128 -139 -278 -72 -149 -151 -311 -175 -360 -79
-156 -126 -262 -126 -285 0 -12 30 -83 66 -157 36 -73 96 -199 134 -279 71
-153 73 -158 168 -366 53 -116 89 -192 234 -495 47 -99 98 -208 157 -335 23
-49 50 -108 61 -130 10 -22 41 -85 68 -140 27 -55 75 -156 107 -225 32 -69 78
-168 102 -220 25 -52 59 -124 75 -160 77 -167 95 -206 173 -365 45 -93 90
-188 100 -210 9 -22 35 -77 56 -122 21 -45 39 -84 39 -87 0 -3 32 -72 70 -153
39 -81 89 -186 111 -233 58 -123 118 -249 182 -380 85 -177 111 -240 101 -249
-5 -5 -142 -13 -304 -20 -432 -17 -926 -47 -825 -50 28 0 182 6 342 15 161 9
299 14 307 11 19 -7 69 -104 61 -117 -4 -6 -36 -10 -73 -10 -36 0 -181 -7
-321 -15 -141 -8 -384 -21 -541 -30 -291 -15 -561 -30 -820 -44 -80 -4 -149
-6 -155 -4 -5 2 -27 38 -47 81 -102 213 -179 377 -208 443 -18 41 -59 130 -92
199 -33 69 -79 166 -103 215 -23 50 -73 153 -110 230 -37 77 -79 165 -92 195
-14 30 -43 92 -64 138 -22 46 -39 85 -39 87 0 2 -38 83 -85 180 -47 97 -88
188 -91 203 -7 37 219 489 242 484 10 -2 14 2 12 10 -3 7 -16 13 -29 13 -21 0
-37 -25 -140 -230 -63 -126 -186 -369 -273 -540 -87 -170 -278 -546 -424 -835
-146 -289 -274 -541 -284 -561 l-19 -36 -241 -6 c-337 -10 -1470 -8 -1485 1
-10 7 -13 863 -11 4203 1 3579 3 4348 7 4402 1 4 385 7 855 7 684 0 856 -3
864 -13z m-1768 -4412 c3 -2316 6 -4211 8 -4212 1 -2 312 -3 691 -3 379 0 696
-3 705 -6 22 -8 20 -24 -9 -77 -19 -34 -33 -46 -56 -51 -41 -8 -1652 -8 -1673
0 -15 6 -16 392 -16 4285 l0 4279 173 -2 172 -3 5 -4210z m3990 4204 c0 -10
-76 -158 -135 -264 -68 -121 -213 -400 -312 -600 -454 -913 -649 -1301 -655
-1303 -5 -2 -8 -11 -8 -21 0 -9 -4 -21 -9 -27 -10 -9 -275 -538 -331 -659 -38
-83 -53 -112 -295 -590 -103 -203 -212 -418 -241 -477 -31 -62 -60 -108 -68
-108 -9 0 -12 -7 -9 -19 2 -10 -19 -65 -50 -127 l-55 -109 -7 48 c-4 27 -5
142 -2 256 l6 208 57 119 c31 65 86 182 123 259 37 77 71 147 75 155 3 8 49
96 101 195 53 99 195 380 316 625 454 915 834 1669 893 1774 13 22 65 122 116
221 162 313 209 400 240 433 19 20 30 22 135 22 77 0 115 -4 115 -11z"/>
<path d="M4395 7775 c0 -709 1 -1001 2 -648 2 353 2 933 0 1290 -1 356 -2 68
-2 -642z"/>
</g>
</svg>
